<?xml version="1.0" encoding="UTF-8"?>
<svg id="Layer_2" data-name="Layer 2" xmlns="http://www.w3.org/2000/svg" viewBox="0 0 303.33 76.25">
  <defs>
    <style>
      .cls-1 {
        fill: #ed5b33;
      }
    </style>
  </defs>
  <g id="Layer_1-2" data-name="Layer 1">
    <g>
      <path class="cls-1" d="M16.13,19.76c.13,.04,.25,.09,.37,.11,6.42,1.59,12.56,5.8,16.8,10.78,4.34,5.14,5.35,11.71,4.62,18.45-.16,1.21,.48,2.43,1.65,2.96,5.43,2.28,6.36-10.81,5.78-14.37-1.34-11.5-11.67-20.91-22.94-23.02,7.97-4.99,18.16-6.92,27.3-4.98,8.85,1.75,16.83,7.21,21.74,15.28,.72,1.18,2.19,1.69,3.51,1.14,1.44-.6,2.13-2.26,1.53-3.7-2.1-5.08-5.51-9.72-9.8-13.37C53.55-2.21,33.65-2.55,18.93,5.76-2.85,17.89-6.13,46.4,10.62,64.2c2.33,2.55,6.37-.61,4.44-3.5-5.15-7.72-8.06-16.98-6.4-26.07,.92-5.87,3.65-10.87,7.48-14.87Z"/>
      <path class="cls-1" d="M87.03,10.46c-2.34-2.57-6.38,.62-4.44,3.5,5.54,8.1,8.62,17.65,7.64,26.76-.52,5.68-2.57,10.49-5.62,14.39-6.15-1.04-12.22-4.25-16.73-8.38-4.95-4.55-6.77-10.95-6.9-17.72,0-1.22-.78-2.35-2.01-2.74-5.67-1.57-4.95,11.51-3.93,14.98,2.58,10.48,12.68,18.17,23.3,19.72-8.04,5.6-18.95,7.64-29.02,5.88-9.15-1.51-17.79-6.44-22.04-14.91-1.57-3.06-6.25-1.15-5.22,2.16,3.58,11.14,14.51,18.72,25.6,21.03,41.15,8.47,67.62-32.1,39.34-64.66h.02Z"/>
      <g>
        <path class="cls-1" d="M112.89,20.24h14.61v4.22h-9.47v4.61h8.77v4h-8.77v7.64h-5.15V20.24h.01Z"/>
        <path class="cls-1" d="M129.1,35.97c0-3.13,2.14-4.45,6.71-4.93l4.29-.45c0-2.18-.71-2.88-2.88-2.88-2.05,0-2.62,.96-2.62,2.27h-4.86c0-3.48,1.41-5.88,7.35-5.88,6.97,0,8,3.13,8,7.35v9.25h-2.23l-1.19-2.55c-1.12,1.86-2.88,2.84-5.79,2.84-3.84,0-6.78-1.6-6.78-5.02Zm7.8,1.51c2.23,0,3.23-1.31,3.2-3.61l-3.2,.38c-1.98,.22-2.59,.77-2.59,1.54,0,.99,.77,1.7,2.59,1.7h0Z"/>
        <path class="cls-1" d="M151.15,16.59c1.89,0,3.23,.42,3.23,2.68s-1.35,2.68-3.23,2.68-3.32-.45-3.32-2.68,1.41-2.68,3.32-2.68Zm-2.52,7.8h5.02v16.31h-5.02V24.4Z"/>
        <path class="cls-1" d="M158.6,35.43v-7.03h-2.55v-2.72l2.55-1.28v-4.16h4.83v4.16h4.29v4h-4.16v6.52c0,1.25,.42,2.27,4.16,1.89v4.03c-7.35,.48-9.12-.96-9.12-5.41Z"/>
        <path class="cls-1" d="M170.85,18.09h4.96v8.03c.58-.96,2.11-2.01,4.32-2.01,5.41,0,6.33,3.23,6.33,7.68v8.93h-5.02v-9.12c0-2.39-.42-3.32-2.72-3.32s-2.91,.9-2.91,3.32v9.12h-4.96V18.09Z"/>
        <path class="cls-1" d="M191.33,28.39h-2.49v-2.68l2.49-1.31v-1.64c0-4.32,2.84-5.44,8.7-4.96v3.93c-2.97-.32-3.71,.26-3.71,1.44v1.22h3.71v4h-3.71v12.32h-4.99v-12.32Z"/>
        <path class="cls-1" d="M202.85,33.61v-9.21h4.99v9.38c0,2.2,.45,3.13,2.72,3.13s2.84-1.03,2.84-3.26v-9.25h5.02v16.31h-2.27l-1.15-2.14c-.9,1.28-2.55,2.43-5.76,2.43-5.41,0-6.39-3.04-6.39-7.39Z"/>
        <path class="cls-1" d="M222.49,18.09h4.99v22.62h-4.99V18.09Z"/>
        <path class="cls-1" d="M231.58,18.09h4.99v22.62h-4.99V18.09Z"/>
        <path class="cls-1" d="M240.44,42.27h4.99c.06,.96,.22,1.83,2.91,1.83,2.43,0,2.84-1.51,2.84-2.97v-2.14c-.83,1.25-2.01,2.02-4.29,2.02-5.44,0-6.3-3.07-6.3-7.52v-9.09h4.99v9.28c0,2.27,.38,3.16,2.72,3.16s2.84-.99,2.84-3.32l.03-9.12h4.99v16.35c0,3.2-1.15,6.65-7.9,6.65-6.33,0-7.84-1.76-7.84-5.12h0Z"/>
        <path class="cls-1" d="M266.74,20.24h14.61v4.22h-9.47v4.61h8.77v4h-8.77v7.64h-5.15V20.24h.01Z"/>
        <path class="cls-1" d="M286.76,16.59c1.89,0,3.23,.42,3.23,2.68s-1.35,2.68-3.23,2.68-3.32-.45-3.32-2.68,1.41-2.68,3.32-2.68Zm-2.52,7.8h5.02v16.31h-5.02V24.4Z"/>
        <path class="cls-1" d="M294.21,35.43v-7.03h-2.55v-2.72l2.55-1.28v-4.16h4.83v4.16h4.29v4h-4.16v6.52c0,1.25,.42,2.27,4.16,1.89v4.03c-7.35,.48-9.12-.96-9.12-5.41Z"/>
        <path class="cls-1" d="M110.95,47.28h2.64l3.32,11.91,3.6-11.91h2.96l3.57,11.91,3.35-11.91h2.52l-4.42,14.57h-3l-3.57-11.82-3.53,11.82h-3l-4.44-14.57h-.01Z"/>
        <path class="cls-1" d="M135.98,45.46c1.05,0,1.73,.3,1.73,1.48s-.68,1.45-1.73,1.45-1.8-.3-1.8-1.45,.71-1.48,1.8-1.48Zm-1.23,4.74h2.42v11.66h-2.42v-11.66Z"/>
        <path class="cls-1" d="M140.69,58.51v-6.35h-1.67v-1.45l1.67-.5v-2.92h2.37v2.92h3.1v1.96h-3.03v6.35c0,1.09,.5,1.59,3.03,1.48v1.96c-3.85,.22-5.46-.68-5.46-3.44h-.01Z"/>
        <path class="cls-1" d="M148.3,45.76h2.39v5.9c.46-.84,1.48-1.61,3.71-1.61,3.81,0,4.58,2.16,4.58,5.52v6.31h-2.42v-6.53c0-2.18-.36-3.24-2.84-3.24s-2.98,1.03-2.98,3.24l-.04,6.53h-2.39v-16.1h0Z"/>
        <path class="cls-1" d="M167.82,47.28h3.21l7.52,11.3v-11.3h2.5v14.57h-3.1l-7.63-11.39v11.39h-2.5v-14.57h.01Z"/>
        <path class="cls-1" d="M185.5,45.46c1.05,0,1.73,.3,1.73,1.48s-.68,1.45-1.73,1.45-1.8-.3-1.8-1.45,.71-1.48,1.8-1.48Zm-1.23,4.74h2.42v11.66h-2.42v-11.66Z"/>
        <path class="cls-1" d="M189.12,56.03c0-3.1,1.25-5.99,5.76-5.99,3.55,0,5.24,1.89,5.24,4.81h-2.48c-.16-1.8-.89-2.82-2.82-2.82-2.5,0-3.21,1.73-3.21,3.99s.68,3.91,3.26,3.91c1.93,0,2.62-.95,2.78-2.64h2.48c0,2.86-1.61,4.74-5.2,4.74-4.6,0-5.8-2.9-5.8-5.99h-.01Z"/>
      </g>
    </g>
  </g>
</svg>