<?xml version="1.0" standalone="no"?>
<!DOCTYPE svg PUBLIC "-//W3C//DTD SVG 20010904//EN"
 "http://www.w3.org/TR/2001/REC-SVG-20010904/DTD/svg10.dtd">
<svg version="1.0" xmlns="http://www.w3.org/2000/svg"
 width="700.000000pt" height="700.000000pt" viewBox="0 0 700.000000 700.000000"
 preserveAspectRatio="xMidYMid meet">
<metadata>
Created by potrace 1.14, written by Peter Selinger 2001-2017
</metadata>
<g transform="translate(0.000000,700.000000) scale(0.100000,-0.100000)"
fill="#000000" stroke="none">
<path d="M2805 5694 c-380 -41 -668 -123 -975 -279 -602 -307 -1002 -819
-1139 -1457 -53 -250 -57 -566 -10 -833 33 -192 118 -439 216 -625 95 -181
244 -389 361 -504 44 -43 57 -49 101 -54 29 -2 64 1 81 8 45 19 97 81 105 128
8 49 -2 74 -90 217 -332 544 -419 1133 -244 1658 63 189 188 406 313 544 l56
62 70 -20 c284 -78 580 -259 821 -502 116 -117 176 -198 238 -319 114 -222
149 -440 132 -829 -4 -97 7 -129 59 -172 62 -53 149 -48 209 12 97 97 161 348
163 636 2 229 -41 407 -148 616 -212 415 -615 731 -1088 853 l-89 23 65 37
c462 258 1008 347 1506 245 501 -102 931 -393 1218 -825 72 -109 101 -129 180
-129 76 0 123 32 149 100 24 61 16 95 -49 228 -310 629 -898 1047 -1636 1162
-101 16 -485 28 -575 19z"/>
<path d="M5485 5134 c-67 -35 -95 -79 -95 -152 0 -43 8 -60 71 -158 39 -60
108 -185 155 -279 227 -459 302 -942 214 -1376 -40 -193 -123 -392 -233 -557
l-62 -93 -40 7 c-157 26 -419 127 -588 227 -278 165 -469 354 -582 577 -90
179 -154 457 -155 672 -1 110 -59 179 -159 186 -46 3 -62 0 -91 -20 -117 -79
-168 -395 -119 -733 20 -134 59 -253 130 -395 203 -409 640 -734 1132 -841 50
-11 93 -22 95 -24 6 -6 -186 -115 -282 -160 -451 -211 -1054 -263 -1557 -135
-479 123 -863 401 -1070 775 -58 105 -86 128 -162 133 -52 3 -67 0 -96 -20
-83 -56 -98 -121 -56 -238 118 -326 358 -620 685 -840 408 -274 905 -403 1489
-387 392 11 698 83 1026 241 682 329 1120 932 1206 1660 15 130 6 462 -16 581
-82 445 -262 828 -571 1214 -59 74 -108 125 -129 135 -42 20 -101 20 -140 0z"/>
</g>
</svg>
