<?xml version="1.0" encoding="UTF-8"?>
<svg id="Layer_2" data-name="Layer 2" xmlns="http://www.w3.org/2000/svg" xmlns:xlink="http://www.w3.org/1999/xlink" viewBox="0 0 304.67 76.58">
  <defs>
    <style>
      .cls-1 {
        fill: url(#radial-gradient);
      }

      .cls-2 {
        fill: url(#linear-gradient);
      }

      .cls-3 {
        fill: #96281f;
      }
    </style>
    <radialGradient id="radial-gradient" cx="38.53" cy="1442.76" fx="87.16" fy="1421.54" r="53.06" gradientTransform="translate(0 1475.47) scale(1 -1)" gradientUnits="userSpaceOnUse">
      <stop offset="0" stop-color="#f15b2b"/>
      <stop offset=".29" stop-color="#ee592a"/>
      <stop offset=".46" stop-color="#e55525"/>
      <stop offset=".6" stop-color="#d75027"/>
      <stop offset=".72" stop-color="#c54527"/>
      <stop offset=".83" stop-color="#aa3924"/>
      <stop offset=".93" stop-color="#8c2a1c"/>
      <stop offset="1" stop-color="#6f2012"/>
    </radialGradient>
    <linearGradient id="linear-gradient" x1="40.43" y1="1460.38" x2="94.54" y2="1390.47" gradientTransform="translate(0 1475.47) scale(1 -1)" gradientUnits="userSpaceOnUse">
      <stop offset="0" stop-color="#6f2012"/>
      <stop offset=".07" stop-color="#7f2618"/>
      <stop offset=".27" stop-color="#a83923"/>
      <stop offset=".47" stop-color="#c94627"/>
      <stop offset=".66" stop-color="#de5326"/>
      <stop offset=".84" stop-color="#ec5828"/>
      <stop offset="1" stop-color="#f15b2b"/>
    </linearGradient>
  </defs>
  <g id="Layer_1-2" data-name="Layer 1">
    <g id="Layer_1-2" data-name="Layer 1-2">
      <path class="cls-1" d="M16.2,19.84c.13,.04,.25,.09,.38,.11,6.45,1.6,12.62,5.83,16.88,10.82,4.36,5.16,5.37,11.76,4.64,18.53-.16,1.21,.48,2.44,1.65,2.97,5.45,2.29,6.39-10.86,5.81-14.43-1.34-11.55-11.73-21-23.04-23.12,8.01-5.01,18.24-6.95,27.42-5,8.89,1.76,16.9,7.24,21.84,15.34,.72,1.18,2.2,1.7,3.52,1.15,1.45-.6,2.14-2.27,1.54-3.72-2.1-5.1-5.53-9.76-9.85-13.43C53.78-2.22,33.8-2.56,19.02,5.79-2.87,17.97-6.15,46.6,10.66,64.48c2.34,2.57,6.4-.61,4.46-3.51-5.18-7.75-8.1-17.05-6.43-26.19,.92-5.89,3.66-10.92,7.52-14.94Z"/>
      <path class="cls-2" d="M87.41,10.5c-2.35-2.58-6.41,.62-4.46,3.51,5.56,8.14,8.65,17.73,7.68,26.88-.53,5.7-2.58,10.53-5.65,14.45-6.17-1.04-12.27-4.27-16.8-8.42-4.97-4.57-6.8-11-6.93-17.8,0-1.22-.78-2.36-2.02-2.75-5.69-1.58-4.97,11.56-3.95,15.04,2.59,10.52,12.73,18.25,23.41,19.81-8.07,5.63-19.04,7.68-29.15,5.91-9.19-1.51-17.87-6.46-22.14-14.98-1.58-3.07-6.28-1.16-5.24,2.17,3.6,11.19,14.57,18.8,25.72,21.12,41.33,8.5,67.91-32.24,39.51-64.95h.02Z"/>
      <g>
        <path class="cls-3" d="M113.39,20.33h14.68v4.24h-9.51v4.63h8.8v4.02h-8.8v7.68h-5.18V20.33h.01Z"/>
        <path class="cls-3" d="M129.68,36.13c0-3.15,2.15-4.47,6.74-4.95l4.31-.45c0-2.19-.71-2.89-2.89-2.89-2.06,0-2.63,.97-2.63,2.28h-4.89c0-3.5,1.42-5.91,7.39-5.91,7,0,8.03,3.15,8.03,7.39v9.29h-2.24l-1.19-2.57c-1.13,1.87-2.89,2.86-5.82,2.86-3.85,0-6.81-1.61-6.81-5.05Zm7.84,1.51c2.24,0,3.24-1.32,3.21-3.63l-3.21,.39c-1.99,.23-2.6,.77-2.6,1.55,0,1,.77,1.71,2.6,1.71h0Z"/>
        <path class="cls-3" d="M151.82,16.67c1.9,0,3.24,.42,3.24,2.7s-1.35,2.7-3.24,2.7-3.34-.45-3.34-2.7,1.42-2.7,3.34-2.7Zm-2.53,7.84h5.05v16.39h-5.05V24.5Z"/>
        <path class="cls-3" d="M159.3,35.59v-7.07h-2.57v-2.73l2.57-1.29v-4.18h4.85v4.18h4.31v4.02h-4.18v6.55c0,1.26,.42,2.28,4.18,1.9v4.05c-7.39,.48-9.16-.97-9.16-5.43Z"/>
        <path class="cls-3" d="M171.61,18.17h4.98v8.06c.58-.97,2.12-2.02,4.34-2.02,5.43,0,6.36,3.24,6.36,7.71v8.97h-5.05v-9.16c0-2.41-.42-3.34-2.73-3.34s-2.92,.9-2.92,3.34v9.16h-4.98V18.17Z"/>
        <path class="cls-3" d="M192.18,28.52h-2.5v-2.7l2.5-1.32v-1.64c0-4.34,2.86-5.47,8.74-4.98v3.95c-2.99-.32-3.73,.26-3.73,1.45v1.22h3.73v4.02h-3.73v12.37h-5.01v-12.37Z"/>
        <path class="cls-3" d="M203.74,33.76v-9.26h5.01v9.42c0,2.21,.45,3.15,2.73,3.15s2.86-1.03,2.86-3.27v-9.29h5.05v16.39h-2.28l-1.16-2.15c-.9,1.29-2.57,2.44-5.79,2.44-5.43,0-6.42-3.05-6.42-7.42Z"/>
        <path class="cls-3" d="M223.48,18.17h5.01v22.72h-5.01V18.17Z"/>
        <path class="cls-3" d="M232.6,18.17h5.01v22.72h-5.01V18.17Z"/>
        <path class="cls-3" d="M241.51,42.46h5.01c.06,.97,.23,1.84,2.92,1.84,2.44,0,2.86-1.51,2.86-2.99v-2.15c-.84,1.26-2.02,2.03-4.31,2.03-5.47,0-6.32-3.08-6.32-7.55v-9.13h5.01v9.32c0,2.28,.39,3.18,2.73,3.18s2.86-1,2.86-3.34l.03-9.16h5.01v16.42c0,3.21-1.16,6.68-7.93,6.68-6.36,0-7.87-1.77-7.87-5.14h0Z"/>
        <path class="cls-3" d="M267.92,20.33h14.68v4.24h-9.51v4.63h8.8v4.02h-8.8v7.68h-5.18V20.33h.01Z"/>
        <path class="cls-3" d="M288.03,16.67c1.9,0,3.24,.42,3.24,2.7s-1.35,2.7-3.24,2.7-3.34-.45-3.34-2.7,1.42-2.7,3.34-2.7Zm-2.53,7.84h5.05v16.39h-5.05V24.5Z"/>
        <path class="cls-3" d="M295.52,35.59v-7.07h-2.57v-2.73l2.57-1.29v-4.18h4.85v4.18h4.31v4.02h-4.18v6.55c0,1.26,.42,2.28,4.18,1.9v4.05c-7.39,.48-9.16-.97-9.16-5.43Z"/>
        <path class="cls-3" d="M111.44,47.49h2.65l3.34,11.96,3.62-11.96h2.97l3.59,11.96,3.36-11.96h2.53l-4.43,14.64h-3.02l-3.59-11.88-3.54,11.88h-3.02l-4.46-14.64h-.01Z"/>
        <path class="cls-3" d="M136.58,45.66c1.05,0,1.74,.3,1.74,1.48s-.69,1.46-1.74,1.46-1.8-.3-1.8-1.46,.71-1.48,1.8-1.48Zm-1.23,4.76h2.43v11.71h-2.43v-11.71Z"/>
        <path class="cls-3" d="M141.32,58.77v-6.38h-1.68v-1.46l1.68-.5v-2.93h2.38v2.93h3.11v1.96h-3.04v6.38c0,1.1,.5,1.6,3.04,1.48v1.96c-3.87,.23-5.49-.69-5.49-3.46h-.01Z"/>
        <path class="cls-3" d="M148.96,45.96h2.41v5.93c.46-.85,1.48-1.62,3.73-1.62,3.82,0,4.6,2.17,4.6,5.54v6.34h-2.43v-6.56c0-2.19-.37-3.25-2.86-3.25s-3,1.03-3,3.25l-.04,6.56h-2.41v-16.17h0Z"/>
        <path class="cls-3" d="M168.57,47.49h3.22l7.55,11.35v-11.35h2.51v14.64h-3.11l-7.67-11.44v11.44h-2.51v-14.64h.01Z"/>
        <path class="cls-3" d="M186.32,45.66c1.05,0,1.74,.3,1.74,1.48s-.69,1.46-1.74,1.46-1.8-.3-1.8-1.46,.71-1.48,1.8-1.48Zm-1.23,4.76h2.43v11.71h-2.43v-11.71Z"/>
        <path class="cls-3" d="M189.96,56.28c0-3.11,1.26-6.01,5.79-6.01,3.56,0,5.26,1.9,5.26,4.83h-2.49c-.16-1.8-.89-2.83-2.83-2.83-2.51,0-3.22,1.74-3.22,4.01s.69,3.93,3.27,3.93c1.94,0,2.63-.96,2.79-2.65h2.49c0,2.88-1.62,4.76-5.22,4.76-4.62,0-5.83-2.91-5.83-6.01h-.01Z"/>
      </g>
    </g>
  </g>
</svg>